<?xml version="1.0" standalone="no"?>
<!DOCTYPE svg PUBLIC "-//W3C//DTD SVG 20010904//EN"
 "http://www.w3.org/TR/2001/REC-SVG-20010904/DTD/svg10.dtd">
<svg version="1.0" xmlns="http://www.w3.org/2000/svg"
 width="280.000000pt" height="280.000000pt" viewBox="0 0 280.000000 280.000000"
 preserveAspectRatio="xMidYMid meet">
<metadata>
Created by potrace 1.14, written by Peter Selinger 2001-2017
</metadata>
<g transform="translate(0.000000,280.000000) scale(0.100000,-0.100000)"
fill="#000000" stroke="none">
<path d="M1204 2560 c-5 -5 -20 -11 -34 -14 -14 -3 -42 -9 -62 -15 -20 -5 -39
-6 -42 -3 -4 3 -6 -1 -6 -8 0 -7 -3 -11 -6 -7 -10 10 -201 -67 -216 -88 -4 -5
-8 -7 -8 -2 0 14 -158 -95 -217 -150 -19 -18 -38 -33 -41 -33 -4 0 -16 -13
-27 -29 -10 -16 -23 -27 -27 -25 -4 3 -8 -2 -8 -10 0 -9 -7 -16 -16 -16 -8 0
-13 -4 -10 -8 3 -5 -8 -24 -25 -43 -45 -52 -49 -57 -49 -69 0 -5 -3 -10 -8
-10 -4 0 -12 -8 -17 -19 -28 -52 -93 -190 -102 -216 -6 -16 -14 -39 -19 -50
-4 -11 -9 -31 -11 -45 -2 -14 -6 -32 -10 -40 -26 -63 -41 -362 -22 -455 6 -27
11 -61 13 -75 2 -14 6 -33 10 -42 4 -9 5 -22 1 -28 -3 -5 -1 -10 5 -10 6 0 10
-6 9 -12 -1 -7 3 -26 9 -41 7 -16 12 -33 12 -38 0 -5 4 -17 10 -27 5 -9 24
-48 41 -86 18 -37 44 -82 58 -99 14 -17 19 -27 11 -23 -11 7 -10 4 2 -10 10
-10 39 -46 64 -79 67 -85 171 -182 261 -244 42 -29 83 -54 89 -55 7 -1 18 -7
25 -12 17 -14 52 -28 62 -26 4 1 7 -3 7 -10 0 -6 3 -8 7 -5 3 4 11 3 17 -2 19
-15 181 -66 198 -63 3 1 27 -5 52 -12 26 -8 43 -10 40 -4 -4 7 0 7 12 1 22
-11 66 -15 149 -15 108 0 185 5 185 11 0 3 21 7 47 8 27 2 55 6 63 9 8 4 22 8
30 10 8 1 22 4 30 7 8 2 29 7 45 12 17 4 36 13 44 19 8 6 17 10 20 9 3 0 20 4
36 11 17 7 32 13 35 12 3 0 23 12 44 26 22 15 43 25 48 22 4 -3 8 0 8 6 0 6 8
14 17 17 9 4 25 14 35 22 10 9 22 16 25 16 4 0 16 8 27 17 62 53 82 68 89 68
4 0 7 8 7 17 0 9 3 14 6 11 5 -6 74 57 74 67 0 2 17 22 38 43 21 21 36 45 34
53 -3 8 -1 11 3 7 8 -8 41 37 42 56 1 5 8 13 17 18 9 5 14 13 11 19 -4 5 -2 9
2 9 5 0 17 20 27 45 10 24 23 42 29 38 6 -3 7 -2 4 4 -3 5 0 21 8 36 7 14 11
27 9 30 -2 2 2 17 11 33 8 16 15 38 15 50 0 11 5 25 12 32 7 7 9 12 6 12 -4 0
-3 14 2 30 8 28 19 100 25 160 1 14 5 35 9 48 4 13 3 22 -3 22 -7 0 -7 8 -2
23 5 13 6 29 2 36 -5 7 -5 27 -2 44 4 18 4 43 0 57 -4 14 -14 61 -22 105 -8
44 -18 91 -22 105 -4 14 -7 31 -7 38 -1 6 -4 12 -8 12 -4 0 -7 6 -7 14 0 21
-45 130 -57 138 -7 5 -7 8 -1 8 7 0 7 3 0 8 -5 4 -19 25 -30 47 -11 22 -25 47
-32 55 -6 8 -35 47 -64 85 -49 65 -184 206 -191 199 -2 -1 -21 13 -43 32 -22
19 -45 34 -52 34 -7 0 -13 5 -13 11 0 5 -4 7 -10 4 -5 -3 -10 -1 -10 5 0 6 -4
8 -10 5 -5 -3 -10 -3 -10 2 0 10 -153 89 -190 98 -8 2 -43 13 -78 24 -35 11
-66 20 -70 19 -4 -1 -14 2 -22 5 -43 17 -353 32 -375 18 -13 -8 -37 -7 -51 1
-6 4 -15 3 -20 -2z"/>
</g>
</svg>
